<mxfile host="app.diagrams.net" agent="Mozilla/5.0 (Windows NT 10.0; Win64; x64) AppleWebKit/537.36 (KHTML, like Gecko) Chrome/131.0.0.0 Safari/537.36" version="25.0.3">
  <diagram name="Page-1" id="vkYV8549UYQZ78CjpYFF">
    <mxGraphModel dx="1434" dy="786" grid="1" gridSize="10" guides="1" tooltips="1" connect="1" arrows="1" fold="1" page="1" pageScale="1" pageWidth="850" pageHeight="1100" math="0" shadow="0">
      <root>
        <mxCell id="0" />
        <mxCell id="1" parent="0" />
        <mxCell id="Dk8m6rx7Y5rghPsr6DhD-1" value="Test" style="whiteSpace=wrap;html=1;aspect=fixed;fillColor=#FFFFFF;verticalAlign=top;" parent="1" vertex="1">
          <mxGeometry x="178" y="282.5" width="495" height="495" as="geometry" />
        </mxCell>
        <mxCell id="Dk8m6rx7Y5rghPsr6DhD-28" style="edgeStyle=orthogonalEdgeStyle;rounded=0;orthogonalLoop=1;jettySize=auto;html=1;exitX=0;exitY=0.5;exitDx=0;exitDy=0;entryX=0;entryY=0.5;entryDx=0;entryDy=0;" parent="1" source="Dk8m6rx7Y5rghPsr6DhD-7" target="Dk8m6rx7Y5rghPsr6DhD-6" edge="1">
          <mxGeometry relative="1" as="geometry">
            <Array as="points">
              <mxPoint x="130" y="420" />
              <mxPoint x="130" y="360" />
            </Array>
          </mxGeometry>
        </mxCell>
        <mxCell id="Dk8m6rx7Y5rghPsr6DhD-29" style="edgeStyle=orthogonalEdgeStyle;rounded=0;orthogonalLoop=1;jettySize=auto;html=1;exitX=1;exitY=0.3333333333333333;exitDx=0;exitDy=0;exitPerimeter=0;entryX=0;entryY=0.5;entryDx=0;entryDy=0;" parent="1" source="Dk8m6rx7Y5rghPsr6DhD-2" target="Dk8m6rx7Y5rghPsr6DhD-8" edge="1">
          <mxGeometry relative="1" as="geometry">
            <Array as="points">
              <mxPoint x="130" y="480" />
            </Array>
          </mxGeometry>
        </mxCell>
        <mxCell id="Dk8m6rx7Y5rghPsr6DhD-36" style="edgeStyle=orthogonalEdgeStyle;rounded=0;orthogonalLoop=1;jettySize=auto;html=1;exitX=1;exitY=0.3333333333333333;exitDx=0;exitDy=0;exitPerimeter=0;entryX=0;entryY=0.5;entryDx=0;entryDy=0;" parent="1" source="Dk8m6rx7Y5rghPsr6DhD-2" target="Dk8m6rx7Y5rghPsr6DhD-9" edge="1">
          <mxGeometry relative="1" as="geometry">
            <Array as="points">
              <mxPoint x="130" y="420" />
              <mxPoint x="130" y="540" />
            </Array>
          </mxGeometry>
        </mxCell>
        <mxCell id="Dk8m6rx7Y5rghPsr6DhD-2" value="Player" style="shape=umlActor;verticalLabelPosition=bottom;verticalAlign=top;html=1;outlineConnect=0;" parent="1" vertex="1">
          <mxGeometry x="70" y="400" width="30" height="60" as="geometry" />
        </mxCell>
        <mxCell id="Dk8m6rx7Y5rghPsr6DhD-32" style="edgeStyle=orthogonalEdgeStyle;rounded=0;orthogonalLoop=1;jettySize=auto;html=1;exitX=1;exitY=0.3333333333333333;exitDx=0;exitDy=0;exitPerimeter=0;entryX=0;entryY=0.5;entryDx=0;entryDy=0;" parent="1" source="Dk8m6rx7Y5rghPsr6DhD-3" target="Dk8m6rx7Y5rghPsr6DhD-10" edge="1">
          <mxGeometry relative="1" as="geometry" />
        </mxCell>
        <mxCell id="Dk8m6rx7Y5rghPsr6DhD-3" value="NPC" style="shape=umlActor;verticalLabelPosition=bottom;verticalAlign=top;html=1;outlineConnect=0;" parent="1" vertex="1">
          <mxGeometry x="70" y="630" width="30" height="60" as="geometry" />
        </mxCell>
        <mxCell id="Dk8m6rx7Y5rghPsr6DhD-39" style="edgeStyle=orthogonalEdgeStyle;rounded=0;orthogonalLoop=1;jettySize=auto;html=1;exitX=0;exitY=0.3333333333333333;exitDx=0;exitDy=0;exitPerimeter=0;entryX=1;entryY=0.5;entryDx=0;entryDy=0;" parent="1" source="Dk8m6rx7Y5rghPsr6DhD-4" target="Dk8m6rx7Y5rghPsr6DhD-12" edge="1">
          <mxGeometry relative="1" as="geometry">
            <Array as="points">
              <mxPoint x="700" y="550" />
              <mxPoint x="700" y="485" />
            </Array>
          </mxGeometry>
        </mxCell>
        <mxCell id="Dk8m6rx7Y5rghPsr6DhD-40" style="edgeStyle=orthogonalEdgeStyle;rounded=0;orthogonalLoop=1;jettySize=auto;html=1;exitX=0;exitY=0.3333333333333333;exitDx=0;exitDy=0;exitPerimeter=0;entryX=1;entryY=0.5;entryDx=0;entryDy=0;" parent="1" source="Dk8m6rx7Y5rghPsr6DhD-4" target="Dk8m6rx7Y5rghPsr6DhD-13" edge="1">
          <mxGeometry relative="1" as="geometry" />
        </mxCell>
        <mxCell id="Dk8m6rx7Y5rghPsr6DhD-41" style="edgeStyle=orthogonalEdgeStyle;rounded=0;orthogonalLoop=1;jettySize=auto;html=1;exitX=0;exitY=0.3333333333333333;exitDx=0;exitDy=0;exitPerimeter=0;entryX=1;entryY=0.5;entryDx=0;entryDy=0;" parent="1" source="Dk8m6rx7Y5rghPsr6DhD-4" target="Dk8m6rx7Y5rghPsr6DhD-14" edge="1">
          <mxGeometry relative="1" as="geometry">
            <Array as="points">
              <mxPoint x="700" y="550" />
              <mxPoint x="700" y="625" />
            </Array>
          </mxGeometry>
        </mxCell>
        <mxCell id="Dk8m6rx7Y5rghPsr6DhD-4" value="Boss" style="shape=umlActor;verticalLabelPosition=bottom;verticalAlign=top;html=1;outlineConnect=0;" parent="1" vertex="1">
          <mxGeometry x="730" y="530" width="30" height="60" as="geometry" />
        </mxCell>
        <mxCell id="Dk8m6rx7Y5rghPsr6DhD-6" value="Attack" style="ellipse;whiteSpace=wrap;html=1;" parent="1" vertex="1">
          <mxGeometry x="220" y="340" width="80" height="40" as="geometry" />
        </mxCell>
        <mxCell id="Dk8m6rx7Y5rghPsr6DhD-7" value="Dodge" style="ellipse;whiteSpace=wrap;html=1;" parent="1" vertex="1">
          <mxGeometry x="230" y="400" width="80" height="40" as="geometry" />
        </mxCell>
        <mxCell id="Dk8m6rx7Y5rghPsr6DhD-8" value="Sprint" style="ellipse;whiteSpace=wrap;html=1;" parent="1" vertex="1">
          <mxGeometry x="220" y="460" width="80" height="40" as="geometry" />
        </mxCell>
        <mxCell id="Dk8m6rx7Y5rghPsr6DhD-9" value="Interact" style="ellipse;whiteSpace=wrap;html=1;" parent="1" vertex="1">
          <mxGeometry x="230" y="520" width="80" height="40" as="geometry" />
        </mxCell>
        <mxCell id="Dk8m6rx7Y5rghPsr6DhD-10" value="Dialog Box" style="ellipse;whiteSpace=wrap;html=1;" parent="1" vertex="1">
          <mxGeometry x="220" y="630" width="80" height="40" as="geometry" />
        </mxCell>
        <mxCell id="Dk8m6rx7Y5rghPsr6DhD-12" value="Chase Target" style="ellipse;whiteSpace=wrap;html=1;" parent="1" vertex="1">
          <mxGeometry x="525" y="460" width="100" height="50" as="geometry" />
        </mxCell>
        <mxCell id="Dk8m6rx7Y5rghPsr6DhD-33" style="edgeStyle=orthogonalEdgeStyle;rounded=0;orthogonalLoop=1;jettySize=auto;html=1;exitX=0;exitY=0.5;exitDx=0;exitDy=0;entryX=1;entryY=0.5;entryDx=0;entryDy=0;dashed=1;dashPattern=12 12;" parent="1" source="Dk8m6rx7Y5rghPsr6DhD-13" target="Dk8m6rx7Y5rghPsr6DhD-6" edge="1">
          <mxGeometry relative="1" as="geometry" />
        </mxCell>
        <mxCell id="Dk8m6rx7Y5rghPsr6DhD-35" value="&amp;lt;&amp;lt;extend&amp;gt;&amp;gt;" style="edgeLabel;html=1;align=center;verticalAlign=middle;resizable=0;points=[];" parent="Dk8m6rx7Y5rghPsr6DhD-33" vertex="1" connectable="0">
          <mxGeometry x="0.2776" y="2" relative="1" as="geometry">
            <mxPoint y="53" as="offset" />
          </mxGeometry>
        </mxCell>
        <mxCell id="Dk8m6rx7Y5rghPsr6DhD-13" value="Combo Attack" style="ellipse;whiteSpace=wrap;html=1;" parent="1" vertex="1">
          <mxGeometry x="527.5" y="525" width="95" height="50" as="geometry" />
        </mxCell>
        <mxCell id="Dk8m6rx7Y5rghPsr6DhD-14" value="Heavy Attack" style="ellipse;whiteSpace=wrap;html=1;" parent="1" vertex="1">
          <mxGeometry x="530" y="600" width="95" height="50" as="geometry" />
        </mxCell>
        <mxCell id="Dk8m6rx7Y5rghPsr6DhD-37" style="edgeStyle=orthogonalEdgeStyle;rounded=0;orthogonalLoop=1;jettySize=auto;html=1;exitX=0.5;exitY=0;exitDx=0;exitDy=0;entryX=0.375;entryY=0.95;entryDx=0;entryDy=0;entryPerimeter=0;dashed=1;dashPattern=12 12;" parent="1" source="Dk8m6rx7Y5rghPsr6DhD-10" target="Dk8m6rx7Y5rghPsr6DhD-9" edge="1">
          <mxGeometry relative="1" as="geometry" />
        </mxCell>
        <mxCell id="Dk8m6rx7Y5rghPsr6DhD-38" value="&amp;lt;&amp;lt;extend&amp;gt;&amp;gt;" style="edgeLabel;html=1;align=center;verticalAlign=middle;resizable=0;points=[];" parent="Dk8m6rx7Y5rghPsr6DhD-37" vertex="1" connectable="0">
          <mxGeometry x="-0.0278" relative="1" as="geometry">
            <mxPoint y="-5" as="offset" />
          </mxGeometry>
        </mxCell>
        <mxCell id="CAmONdcAL_RtEgoEtn1a-14" value="Gangguan Listrik (E)" style="whiteSpace=wrap;strokeWidth=2;" vertex="1" parent="1">
          <mxGeometry x="50" y="1410" width="150" height="49" as="geometry" />
        </mxCell>
        <mxCell id="CAmONdcAL_RtEgoEtn1a-15" value="Koneksi Internet (I)" style="whiteSpace=wrap;strokeWidth=2;" vertex="1" parent="1">
          <mxGeometry x="200" y="1590" width="196" height="49" as="geometry" />
        </mxCell>
        <mxCell id="CAmONdcAL_RtEgoEtn1a-16" value="Cuaca Buruk (W)" style="whiteSpace=wrap;strokeWidth=2;" vertex="1" parent="1">
          <mxGeometry x="330" y="1410" width="170" height="49" as="geometry" />
        </mxCell>
        <mxCell id="CAmONdcAL_RtEgoEtn1a-17" value="Lag (L)" style="whiteSpace=wrap;strokeWidth=2;" vertex="1" parent="1">
          <mxGeometry x="78" y="1710" width="100" height="49" as="geometry" />
        </mxCell>
        <mxCell id="CAmONdcAL_RtEgoEtn1a-18" value="Kekalahan (K)" style="whiteSpace=wrap;strokeWidth=2;" vertex="1" parent="1">
          <mxGeometry x="250" y="1930" width="140" height="49" as="geometry" />
        </mxCell>
        <mxCell id="CAmONdcAL_RtEgoEtn1a-19" value="Kurang Istirahat (R)" style="whiteSpace=wrap;strokeWidth=2;" vertex="1" parent="1">
          <mxGeometry x="240" y="1740" width="160" height="49" as="geometry" />
        </mxCell>
        <mxCell id="CAmONdcAL_RtEgoEtn1a-20" value="Latihan Tidak Cukup (T)" style="whiteSpace=wrap;strokeWidth=2;" vertex="1" parent="1">
          <mxGeometry x="450" y="1740" width="161" height="49" as="geometry" />
        </mxCell>
        <mxCell id="CAmONdcAL_RtEgoEtn1a-21" value="Frustrasi (F)" style="whiteSpace=wrap;strokeWidth=2;" vertex="1" parent="1">
          <mxGeometry x="255.5" y="2140" width="134.5" height="49" as="geometry" />
        </mxCell>
        <mxCell id="CAmONdcAL_RtEgoEtn1a-22" value="" style="curved=1;startArrow=none;endArrow=block;exitX=0.87;exitY=1;entryX=0.25;entryY=0;rounded=0;entryDx=0;entryDy=0;" edge="1" parent="1" source="CAmONdcAL_RtEgoEtn1a-14" target="CAmONdcAL_RtEgoEtn1a-15">
          <mxGeometry relative="1" as="geometry">
            <Array as="points">
              <mxPoint x="200" y="1560" />
            </Array>
          </mxGeometry>
        </mxCell>
        <mxCell id="CAmONdcAL_RtEgoEtn1a-23" value="" style="curved=1;startArrow=none;endArrow=block;exitX=0.5;exitY=1;entryX=0.852;entryY=0.02;rounded=0;entryDx=0;entryDy=0;entryPerimeter=0;" edge="1" parent="1" source="CAmONdcAL_RtEgoEtn1a-16" target="CAmONdcAL_RtEgoEtn1a-15">
          <mxGeometry relative="1" as="geometry">
            <Array as="points">
              <mxPoint x="410" y="1570" />
            </Array>
          </mxGeometry>
        </mxCell>
        <mxCell id="CAmONdcAL_RtEgoEtn1a-24" value="" style="curved=1;startArrow=none;endArrow=block;exitX=0.43;exitY=1;entryX=0.25;entryY=0;rounded=0;entryDx=0;entryDy=0;" edge="1" parent="1" source="CAmONdcAL_RtEgoEtn1a-14" target="CAmONdcAL_RtEgoEtn1a-17">
          <mxGeometry relative="1" as="geometry">
            <Array as="points">
              <mxPoint x="80" y="1590" />
            </Array>
          </mxGeometry>
        </mxCell>
        <mxCell id="CAmONdcAL_RtEgoEtn1a-25" value="" style="curved=1;startArrow=none;endArrow=block;exitX=0.51;exitY=1;entryX=0.58;entryY=0;rounded=0;entryDx=0;entryDy=0;entryPerimeter=0;" edge="1" parent="1" source="CAmONdcAL_RtEgoEtn1a-15" target="CAmONdcAL_RtEgoEtn1a-17">
          <mxGeometry relative="1" as="geometry">
            <Array as="points" />
          </mxGeometry>
        </mxCell>
        <mxCell id="CAmONdcAL_RtEgoEtn1a-26" value="" style="curved=1;startArrow=none;endArrow=block;exitX=0.5;exitY=1;entryX=0.129;entryY=0.041;rounded=0;entryDx=0;entryDy=0;entryPerimeter=0;" edge="1" parent="1" source="CAmONdcAL_RtEgoEtn1a-17" target="CAmONdcAL_RtEgoEtn1a-18">
          <mxGeometry relative="1" as="geometry">
            <Array as="points">
              <mxPoint x="166" y="1882" />
            </Array>
          </mxGeometry>
        </mxCell>
        <mxCell id="CAmONdcAL_RtEgoEtn1a-27" value="" style="curved=1;startArrow=none;endArrow=block;exitX=0.5;exitY=1;entryX=0.5;entryY=0;rounded=0;" edge="1" parent="1" source="CAmONdcAL_RtEgoEtn1a-19" target="CAmONdcAL_RtEgoEtn1a-18">
          <mxGeometry relative="1" as="geometry">
            <Array as="points" />
          </mxGeometry>
        </mxCell>
        <mxCell id="CAmONdcAL_RtEgoEtn1a-28" value="" style="curved=1;startArrow=none;endArrow=block;exitX=0.5;exitY=1;entryX=0.836;entryY=-0.02;rounded=0;entryDx=0;entryDy=0;entryPerimeter=0;" edge="1" parent="1" source="CAmONdcAL_RtEgoEtn1a-20" target="CAmONdcAL_RtEgoEtn1a-18">
          <mxGeometry relative="1" as="geometry">
            <Array as="points">
              <mxPoint x="430" y="1890" />
            </Array>
          </mxGeometry>
        </mxCell>
        <mxCell id="CAmONdcAL_RtEgoEtn1a-29" value="" style="curved=1;startArrow=none;endArrow=block;exitX=0.5;exitY=1;entryX=0.49;entryY=0;rounded=0;" edge="1" parent="1" source="CAmONdcAL_RtEgoEtn1a-18" target="CAmONdcAL_RtEgoEtn1a-21">
          <mxGeometry relative="1" as="geometry">
            <Array as="points" />
          </mxGeometry>
        </mxCell>
        <mxCell id="CAmONdcAL_RtEgoEtn1a-52" value="" style="shape=table;startSize=0;container=1;collapsible=0;childLayout=tableLayout;" vertex="1" parent="1">
          <mxGeometry x="40" y="1150" width="165" height="68" as="geometry" />
        </mxCell>
        <mxCell id="CAmONdcAL_RtEgoEtn1a-53" value="" style="shape=tableRow;horizontal=0;startSize=0;swimlaneHead=0;swimlaneBody=0;strokeColor=inherit;top=0;left=0;bottom=0;right=0;collapsible=0;dropTarget=0;fillColor=none;points=[[0,0.5],[1,0.5]];portConstraint=eastwest;" vertex="1" parent="CAmONdcAL_RtEgoEtn1a-52">
          <mxGeometry width="165" height="20" as="geometry" />
        </mxCell>
        <mxCell id="CAmONdcAL_RtEgoEtn1a-54" value="E" style="shape=partialRectangle;html=1;whiteSpace=wrap;connectable=0;strokeColor=inherit;overflow=hidden;fillColor=none;top=0;left=0;bottom=0;right=0;pointerEvents=1;" vertex="1" parent="CAmONdcAL_RtEgoEtn1a-53">
          <mxGeometry width="83" height="20" as="geometry">
            <mxRectangle width="83" height="20" as="alternateBounds" />
          </mxGeometry>
        </mxCell>
        <mxCell id="CAmONdcAL_RtEgoEtn1a-55" value="Probabilitas" style="shape=partialRectangle;html=1;whiteSpace=wrap;connectable=0;strokeColor=inherit;overflow=hidden;fillColor=none;top=0;left=0;bottom=0;right=0;pointerEvents=1;" vertex="1" parent="CAmONdcAL_RtEgoEtn1a-53">
          <mxGeometry x="83" width="82" height="20" as="geometry">
            <mxRectangle width="82" height="20" as="alternateBounds" />
          </mxGeometry>
        </mxCell>
        <mxCell id="CAmONdcAL_RtEgoEtn1a-56" value="" style="shape=tableRow;horizontal=0;startSize=0;swimlaneHead=0;swimlaneBody=0;strokeColor=inherit;top=0;left=0;bottom=0;right=0;collapsible=0;dropTarget=0;fillColor=none;points=[[0,0.5],[1,0.5]];portConstraint=eastwest;" vertex="1" parent="CAmONdcAL_RtEgoEtn1a-52">
          <mxGeometry y="20" width="165" height="25" as="geometry" />
        </mxCell>
        <mxCell id="CAmONdcAL_RtEgoEtn1a-57" value="true" style="shape=partialRectangle;html=1;whiteSpace=wrap;connectable=0;strokeColor=inherit;overflow=hidden;fillColor=none;top=0;left=0;bottom=0;right=0;pointerEvents=1;" vertex="1" parent="CAmONdcAL_RtEgoEtn1a-56">
          <mxGeometry width="83" height="25" as="geometry">
            <mxRectangle width="83" height="25" as="alternateBounds" />
          </mxGeometry>
        </mxCell>
        <mxCell id="CAmONdcAL_RtEgoEtn1a-58" value="0.3" style="shape=partialRectangle;html=1;whiteSpace=wrap;connectable=0;strokeColor=inherit;overflow=hidden;fillColor=none;top=0;left=0;bottom=0;right=0;pointerEvents=1;" vertex="1" parent="CAmONdcAL_RtEgoEtn1a-56">
          <mxGeometry x="83" width="82" height="25" as="geometry">
            <mxRectangle width="82" height="25" as="alternateBounds" />
          </mxGeometry>
        </mxCell>
        <mxCell id="CAmONdcAL_RtEgoEtn1a-59" value="" style="shape=tableRow;horizontal=0;startSize=0;swimlaneHead=0;swimlaneBody=0;strokeColor=inherit;top=0;left=0;bottom=0;right=0;collapsible=0;dropTarget=0;fillColor=none;points=[[0,0.5],[1,0.5]];portConstraint=eastwest;" vertex="1" parent="CAmONdcAL_RtEgoEtn1a-52">
          <mxGeometry y="45" width="165" height="23" as="geometry" />
        </mxCell>
        <mxCell id="CAmONdcAL_RtEgoEtn1a-60" value="false" style="shape=partialRectangle;html=1;whiteSpace=wrap;connectable=0;strokeColor=inherit;overflow=hidden;fillColor=none;top=0;left=0;bottom=0;right=0;pointerEvents=1;" vertex="1" parent="CAmONdcAL_RtEgoEtn1a-59">
          <mxGeometry width="83" height="23" as="geometry">
            <mxRectangle width="83" height="23" as="alternateBounds" />
          </mxGeometry>
        </mxCell>
        <mxCell id="CAmONdcAL_RtEgoEtn1a-61" value="0.7" style="shape=partialRectangle;html=1;whiteSpace=wrap;connectable=0;strokeColor=inherit;overflow=hidden;fillColor=none;top=0;left=0;bottom=0;right=0;pointerEvents=1;" vertex="1" parent="CAmONdcAL_RtEgoEtn1a-59">
          <mxGeometry x="83" width="82" height="23" as="geometry">
            <mxRectangle width="82" height="23" as="alternateBounds" />
          </mxGeometry>
        </mxCell>
        <mxCell id="CAmONdcAL_RtEgoEtn1a-62" value="" style="shape=table;startSize=0;container=1;collapsible=0;childLayout=tableLayout;" vertex="1" parent="1">
          <mxGeometry x="252.75" y="1210" width="165" height="71" as="geometry" />
        </mxCell>
        <mxCell id="CAmONdcAL_RtEgoEtn1a-63" value="" style="shape=tableRow;horizontal=0;startSize=0;swimlaneHead=0;swimlaneBody=0;strokeColor=inherit;top=0;left=0;bottom=0;right=0;collapsible=0;dropTarget=0;fillColor=none;points=[[0,0.5],[1,0.5]];portConstraint=eastwest;" vertex="1" parent="CAmONdcAL_RtEgoEtn1a-62">
          <mxGeometry width="165" height="23" as="geometry" />
        </mxCell>
        <mxCell id="CAmONdcAL_RtEgoEtn1a-64" value="W" style="shape=partialRectangle;html=1;whiteSpace=wrap;connectable=0;strokeColor=inherit;overflow=hidden;fillColor=none;top=0;left=0;bottom=0;right=0;pointerEvents=1;" vertex="1" parent="CAmONdcAL_RtEgoEtn1a-63">
          <mxGeometry width="83" height="23" as="geometry">
            <mxRectangle width="83" height="23" as="alternateBounds" />
          </mxGeometry>
        </mxCell>
        <mxCell id="CAmONdcAL_RtEgoEtn1a-65" value="Probabilitas" style="shape=partialRectangle;html=1;whiteSpace=wrap;connectable=0;strokeColor=inherit;overflow=hidden;fillColor=none;top=0;left=0;bottom=0;right=0;pointerEvents=1;" vertex="1" parent="CAmONdcAL_RtEgoEtn1a-63">
          <mxGeometry x="83" width="82" height="23" as="geometry">
            <mxRectangle width="82" height="23" as="alternateBounds" />
          </mxGeometry>
        </mxCell>
        <mxCell id="CAmONdcAL_RtEgoEtn1a-66" value="" style="shape=tableRow;horizontal=0;startSize=0;swimlaneHead=0;swimlaneBody=0;strokeColor=inherit;top=0;left=0;bottom=0;right=0;collapsible=0;dropTarget=0;fillColor=none;points=[[0,0.5],[1,0.5]];portConstraint=eastwest;" vertex="1" parent="CAmONdcAL_RtEgoEtn1a-62">
          <mxGeometry y="23" width="165" height="25" as="geometry" />
        </mxCell>
        <mxCell id="CAmONdcAL_RtEgoEtn1a-67" value="true" style="shape=partialRectangle;html=1;whiteSpace=wrap;connectable=0;strokeColor=inherit;overflow=hidden;fillColor=none;top=0;left=0;bottom=0;right=0;pointerEvents=1;" vertex="1" parent="CAmONdcAL_RtEgoEtn1a-66">
          <mxGeometry width="83" height="25" as="geometry">
            <mxRectangle width="83" height="25" as="alternateBounds" />
          </mxGeometry>
        </mxCell>
        <mxCell id="CAmONdcAL_RtEgoEtn1a-68" value="0.4" style="shape=partialRectangle;html=1;whiteSpace=wrap;connectable=0;strokeColor=inherit;overflow=hidden;fillColor=none;top=0;left=0;bottom=0;right=0;pointerEvents=1;" vertex="1" parent="CAmONdcAL_RtEgoEtn1a-66">
          <mxGeometry x="83" width="82" height="25" as="geometry">
            <mxRectangle width="82" height="25" as="alternateBounds" />
          </mxGeometry>
        </mxCell>
        <mxCell id="CAmONdcAL_RtEgoEtn1a-69" value="" style="shape=tableRow;horizontal=0;startSize=0;swimlaneHead=0;swimlaneBody=0;strokeColor=inherit;top=0;left=0;bottom=0;right=0;collapsible=0;dropTarget=0;fillColor=none;points=[[0,0.5],[1,0.5]];portConstraint=eastwest;" vertex="1" parent="CAmONdcAL_RtEgoEtn1a-62">
          <mxGeometry y="48" width="165" height="23" as="geometry" />
        </mxCell>
        <mxCell id="CAmONdcAL_RtEgoEtn1a-70" value="false" style="shape=partialRectangle;html=1;whiteSpace=wrap;connectable=0;strokeColor=inherit;overflow=hidden;fillColor=none;top=0;left=0;bottom=0;right=0;pointerEvents=1;" vertex="1" parent="CAmONdcAL_RtEgoEtn1a-69">
          <mxGeometry width="83" height="23" as="geometry">
            <mxRectangle width="83" height="23" as="alternateBounds" />
          </mxGeometry>
        </mxCell>
        <mxCell id="CAmONdcAL_RtEgoEtn1a-71" value="0.6" style="shape=partialRectangle;html=1;whiteSpace=wrap;connectable=0;strokeColor=inherit;overflow=hidden;fillColor=none;top=0;left=0;bottom=0;right=0;pointerEvents=1;" vertex="1" parent="CAmONdcAL_RtEgoEtn1a-69">
          <mxGeometry x="83" width="82" height="23" as="geometry">
            <mxRectangle width="82" height="23" as="alternateBounds" />
          </mxGeometry>
        </mxCell>
        <mxCell id="CAmONdcAL_RtEgoEtn1a-82" value="" style="shape=table;startSize=0;container=1;collapsible=0;childLayout=tableLayout;" vertex="1" parent="1">
          <mxGeometry x="500" y="1080" width="280" height="230" as="geometry" />
        </mxCell>
        <mxCell id="CAmONdcAL_RtEgoEtn1a-83" value="" style="shape=tableRow;horizontal=0;startSize=0;swimlaneHead=0;swimlaneBody=0;strokeColor=inherit;top=0;left=0;bottom=0;right=0;collapsible=0;dropTarget=0;fillColor=none;points=[[0,0.5],[1,0.5]];portConstraint=eastwest;" vertex="1" parent="CAmONdcAL_RtEgoEtn1a-82">
          <mxGeometry width="280" height="26" as="geometry" />
        </mxCell>
        <mxCell id="CAmONdcAL_RtEgoEtn1a-84" value="E" style="shape=partialRectangle;html=1;whiteSpace=wrap;connectable=0;strokeColor=inherit;overflow=hidden;fillColor=none;top=0;left=0;bottom=0;right=0;pointerEvents=1;" vertex="1" parent="CAmONdcAL_RtEgoEtn1a-83">
          <mxGeometry width="60" height="26" as="geometry">
            <mxRectangle width="60" height="26" as="alternateBounds" />
          </mxGeometry>
        </mxCell>
        <mxCell id="CAmONdcAL_RtEgoEtn1a-85" value="W" style="shape=partialRectangle;html=1;whiteSpace=wrap;connectable=0;strokeColor=inherit;overflow=hidden;fillColor=none;top=0;left=0;bottom=0;right=0;pointerEvents=1;" vertex="1" parent="CAmONdcAL_RtEgoEtn1a-83">
          <mxGeometry x="60" width="60" height="26" as="geometry">
            <mxRectangle width="60" height="26" as="alternateBounds" />
          </mxGeometry>
        </mxCell>
        <mxCell id="CAmONdcAL_RtEgoEtn1a-86" value="I" style="shape=partialRectangle;html=1;whiteSpace=wrap;connectable=0;strokeColor=inherit;overflow=hidden;fillColor=none;top=0;left=0;bottom=0;right=0;pointerEvents=1;" vertex="1" parent="CAmONdcAL_RtEgoEtn1a-83">
          <mxGeometry x="120" width="60" height="26" as="geometry">
            <mxRectangle width="60" height="26" as="alternateBounds" />
          </mxGeometry>
        </mxCell>
        <mxCell id="CAmONdcAL_RtEgoEtn1a-87" value="Probabilitas" style="shape=partialRectangle;html=1;whiteSpace=wrap;connectable=0;strokeColor=inherit;overflow=hidden;fillColor=none;top=0;left=0;bottom=0;right=0;pointerEvents=1;" vertex="1" parent="CAmONdcAL_RtEgoEtn1a-83">
          <mxGeometry x="180" width="100" height="26" as="geometry">
            <mxRectangle width="100" height="26" as="alternateBounds" />
          </mxGeometry>
        </mxCell>
        <mxCell id="CAmONdcAL_RtEgoEtn1a-88" value="" style="shape=tableRow;horizontal=0;startSize=0;swimlaneHead=0;swimlaneBody=0;strokeColor=inherit;top=0;left=0;bottom=0;right=0;collapsible=0;dropTarget=0;fillColor=none;points=[[0,0.5],[1,0.5]];portConstraint=eastwest;" vertex="1" parent="CAmONdcAL_RtEgoEtn1a-82">
          <mxGeometry y="26" width="280" height="25" as="geometry" />
        </mxCell>
        <mxCell id="CAmONdcAL_RtEgoEtn1a-89" value="true" style="shape=partialRectangle;html=1;whiteSpace=wrap;connectable=0;strokeColor=inherit;overflow=hidden;fillColor=none;top=0;left=0;bottom=0;right=0;pointerEvents=1;" vertex="1" parent="CAmONdcAL_RtEgoEtn1a-88">
          <mxGeometry width="60" height="25" as="geometry">
            <mxRectangle width="60" height="25" as="alternateBounds" />
          </mxGeometry>
        </mxCell>
        <mxCell id="CAmONdcAL_RtEgoEtn1a-90" value="true" style="shape=partialRectangle;html=1;whiteSpace=wrap;connectable=0;strokeColor=inherit;overflow=hidden;fillColor=none;top=0;left=0;bottom=0;right=0;pointerEvents=1;" vertex="1" parent="CAmONdcAL_RtEgoEtn1a-88">
          <mxGeometry x="60" width="60" height="25" as="geometry">
            <mxRectangle width="60" height="25" as="alternateBounds" />
          </mxGeometry>
        </mxCell>
        <mxCell id="CAmONdcAL_RtEgoEtn1a-91" value="true" style="shape=partialRectangle;html=1;whiteSpace=wrap;connectable=0;strokeColor=inherit;overflow=hidden;fillColor=none;top=0;left=0;bottom=0;right=0;pointerEvents=1;" vertex="1" parent="CAmONdcAL_RtEgoEtn1a-88">
          <mxGeometry x="120" width="60" height="25" as="geometry">
            <mxRectangle width="60" height="25" as="alternateBounds" />
          </mxGeometry>
        </mxCell>
        <mxCell id="CAmONdcAL_RtEgoEtn1a-92" value="0.8" style="shape=partialRectangle;html=1;whiteSpace=wrap;connectable=0;strokeColor=inherit;overflow=hidden;fillColor=none;top=0;left=0;bottom=0;right=0;pointerEvents=1;" vertex="1" parent="CAmONdcAL_RtEgoEtn1a-88">
          <mxGeometry x="180" width="100" height="25" as="geometry">
            <mxRectangle width="100" height="25" as="alternateBounds" />
          </mxGeometry>
        </mxCell>
        <mxCell id="CAmONdcAL_RtEgoEtn1a-93" value="" style="shape=tableRow;horizontal=0;startSize=0;swimlaneHead=0;swimlaneBody=0;strokeColor=inherit;top=0;left=0;bottom=0;right=0;collapsible=0;dropTarget=0;fillColor=none;points=[[0,0.5],[1,0.5]];portConstraint=eastwest;" vertex="1" parent="CAmONdcAL_RtEgoEtn1a-82">
          <mxGeometry y="51" width="280" height="26" as="geometry" />
        </mxCell>
        <mxCell id="CAmONdcAL_RtEgoEtn1a-94" value="true" style="shape=partialRectangle;html=1;whiteSpace=wrap;connectable=0;strokeColor=inherit;overflow=hidden;fillColor=none;top=0;left=0;bottom=0;right=0;pointerEvents=1;" vertex="1" parent="CAmONdcAL_RtEgoEtn1a-93">
          <mxGeometry width="60" height="26" as="geometry">
            <mxRectangle width="60" height="26" as="alternateBounds" />
          </mxGeometry>
        </mxCell>
        <mxCell id="CAmONdcAL_RtEgoEtn1a-95" value="true" style="shape=partialRectangle;html=1;whiteSpace=wrap;connectable=0;strokeColor=inherit;overflow=hidden;fillColor=none;top=0;left=0;bottom=0;right=0;pointerEvents=1;" vertex="1" parent="CAmONdcAL_RtEgoEtn1a-93">
          <mxGeometry x="60" width="60" height="26" as="geometry">
            <mxRectangle width="60" height="26" as="alternateBounds" />
          </mxGeometry>
        </mxCell>
        <mxCell id="CAmONdcAL_RtEgoEtn1a-96" value="false" style="shape=partialRectangle;html=1;whiteSpace=wrap;connectable=0;strokeColor=inherit;overflow=hidden;fillColor=none;top=0;left=0;bottom=0;right=0;pointerEvents=1;" vertex="1" parent="CAmONdcAL_RtEgoEtn1a-93">
          <mxGeometry x="120" width="60" height="26" as="geometry">
            <mxRectangle width="60" height="26" as="alternateBounds" />
          </mxGeometry>
        </mxCell>
        <mxCell id="CAmONdcAL_RtEgoEtn1a-97" value="0.2" style="shape=partialRectangle;html=1;whiteSpace=wrap;connectable=0;strokeColor=inherit;overflow=hidden;fillColor=none;top=0;left=0;bottom=0;right=0;pointerEvents=1;" vertex="1" parent="CAmONdcAL_RtEgoEtn1a-93">
          <mxGeometry x="180" width="100" height="26" as="geometry">
            <mxRectangle width="100" height="26" as="alternateBounds" />
          </mxGeometry>
        </mxCell>
        <mxCell id="CAmONdcAL_RtEgoEtn1a-98" value="" style="shape=tableRow;horizontal=0;startSize=0;swimlaneHead=0;swimlaneBody=0;strokeColor=inherit;top=0;left=0;bottom=0;right=0;collapsible=0;dropTarget=0;fillColor=none;points=[[0,0.5],[1,0.5]];portConstraint=eastwest;" vertex="1" parent="CAmONdcAL_RtEgoEtn1a-82">
          <mxGeometry y="77" width="280" height="25" as="geometry" />
        </mxCell>
        <mxCell id="CAmONdcAL_RtEgoEtn1a-99" value="true" style="shape=partialRectangle;html=1;whiteSpace=wrap;connectable=0;strokeColor=inherit;overflow=hidden;fillColor=none;top=0;left=0;bottom=0;right=0;pointerEvents=1;" vertex="1" parent="CAmONdcAL_RtEgoEtn1a-98">
          <mxGeometry width="60" height="25" as="geometry">
            <mxRectangle width="60" height="25" as="alternateBounds" />
          </mxGeometry>
        </mxCell>
        <mxCell id="CAmONdcAL_RtEgoEtn1a-100" value="false" style="shape=partialRectangle;html=1;whiteSpace=wrap;connectable=0;strokeColor=inherit;overflow=hidden;fillColor=none;top=0;left=0;bottom=0;right=0;pointerEvents=1;" vertex="1" parent="CAmONdcAL_RtEgoEtn1a-98">
          <mxGeometry x="60" width="60" height="25" as="geometry">
            <mxRectangle width="60" height="25" as="alternateBounds" />
          </mxGeometry>
        </mxCell>
        <mxCell id="CAmONdcAL_RtEgoEtn1a-101" value="true" style="shape=partialRectangle;html=1;whiteSpace=wrap;connectable=0;strokeColor=inherit;overflow=hidden;fillColor=none;top=0;left=0;bottom=0;right=0;pointerEvents=1;" vertex="1" parent="CAmONdcAL_RtEgoEtn1a-98">
          <mxGeometry x="120" width="60" height="25" as="geometry">
            <mxRectangle width="60" height="25" as="alternateBounds" />
          </mxGeometry>
        </mxCell>
        <mxCell id="CAmONdcAL_RtEgoEtn1a-102" value="0.7" style="shape=partialRectangle;html=1;whiteSpace=wrap;connectable=0;strokeColor=inherit;overflow=hidden;fillColor=none;top=0;left=0;bottom=0;right=0;pointerEvents=1;" vertex="1" parent="CAmONdcAL_RtEgoEtn1a-98">
          <mxGeometry x="180" width="100" height="25" as="geometry">
            <mxRectangle width="100" height="25" as="alternateBounds" />
          </mxGeometry>
        </mxCell>
        <mxCell id="CAmONdcAL_RtEgoEtn1a-103" value="" style="shape=tableRow;horizontal=0;startSize=0;swimlaneHead=0;swimlaneBody=0;strokeColor=inherit;top=0;left=0;bottom=0;right=0;collapsible=0;dropTarget=0;fillColor=none;points=[[0,0.5],[1,0.5]];portConstraint=eastwest;" vertex="1" parent="CAmONdcAL_RtEgoEtn1a-82">
          <mxGeometry y="102" width="280" height="26" as="geometry" />
        </mxCell>
        <mxCell id="CAmONdcAL_RtEgoEtn1a-104" value="true" style="shape=partialRectangle;html=1;whiteSpace=wrap;connectable=0;strokeColor=inherit;overflow=hidden;fillColor=none;top=0;left=0;bottom=0;right=0;pointerEvents=1;" vertex="1" parent="CAmONdcAL_RtEgoEtn1a-103">
          <mxGeometry width="60" height="26" as="geometry">
            <mxRectangle width="60" height="26" as="alternateBounds" />
          </mxGeometry>
        </mxCell>
        <mxCell id="CAmONdcAL_RtEgoEtn1a-105" value="false" style="shape=partialRectangle;html=1;whiteSpace=wrap;connectable=0;strokeColor=inherit;overflow=hidden;fillColor=none;top=0;left=0;bottom=0;right=0;pointerEvents=1;" vertex="1" parent="CAmONdcAL_RtEgoEtn1a-103">
          <mxGeometry x="60" width="60" height="26" as="geometry">
            <mxRectangle width="60" height="26" as="alternateBounds" />
          </mxGeometry>
        </mxCell>
        <mxCell id="CAmONdcAL_RtEgoEtn1a-106" value="false" style="shape=partialRectangle;html=1;whiteSpace=wrap;connectable=0;strokeColor=inherit;overflow=hidden;fillColor=none;top=0;left=0;bottom=0;right=0;pointerEvents=1;" vertex="1" parent="CAmONdcAL_RtEgoEtn1a-103">
          <mxGeometry x="120" width="60" height="26" as="geometry">
            <mxRectangle width="60" height="26" as="alternateBounds" />
          </mxGeometry>
        </mxCell>
        <mxCell id="CAmONdcAL_RtEgoEtn1a-107" value="0.3" style="shape=partialRectangle;html=1;whiteSpace=wrap;connectable=0;strokeColor=inherit;overflow=hidden;fillColor=none;top=0;left=0;bottom=0;right=0;pointerEvents=1;" vertex="1" parent="CAmONdcAL_RtEgoEtn1a-103">
          <mxGeometry x="180" width="100" height="26" as="geometry">
            <mxRectangle width="100" height="26" as="alternateBounds" />
          </mxGeometry>
        </mxCell>
        <mxCell id="CAmONdcAL_RtEgoEtn1a-108" value="" style="shape=tableRow;horizontal=0;startSize=0;swimlaneHead=0;swimlaneBody=0;strokeColor=inherit;top=0;left=0;bottom=0;right=0;collapsible=0;dropTarget=0;fillColor=none;points=[[0,0.5],[1,0.5]];portConstraint=eastwest;" vertex="1" parent="CAmONdcAL_RtEgoEtn1a-82">
          <mxGeometry y="128" width="280" height="25" as="geometry" />
        </mxCell>
        <mxCell id="CAmONdcAL_RtEgoEtn1a-109" value="false" style="shape=partialRectangle;html=1;whiteSpace=wrap;connectable=0;strokeColor=inherit;overflow=hidden;fillColor=none;top=0;left=0;bottom=0;right=0;pointerEvents=1;" vertex="1" parent="CAmONdcAL_RtEgoEtn1a-108">
          <mxGeometry width="60" height="25" as="geometry">
            <mxRectangle width="60" height="25" as="alternateBounds" />
          </mxGeometry>
        </mxCell>
        <mxCell id="CAmONdcAL_RtEgoEtn1a-110" value="true" style="shape=partialRectangle;html=1;whiteSpace=wrap;connectable=0;strokeColor=inherit;overflow=hidden;fillColor=none;top=0;left=0;bottom=0;right=0;pointerEvents=1;" vertex="1" parent="CAmONdcAL_RtEgoEtn1a-108">
          <mxGeometry x="60" width="60" height="25" as="geometry">
            <mxRectangle width="60" height="25" as="alternateBounds" />
          </mxGeometry>
        </mxCell>
        <mxCell id="CAmONdcAL_RtEgoEtn1a-111" value="true" style="shape=partialRectangle;html=1;whiteSpace=wrap;connectable=0;strokeColor=inherit;overflow=hidden;fillColor=none;top=0;left=0;bottom=0;right=0;pointerEvents=1;" vertex="1" parent="CAmONdcAL_RtEgoEtn1a-108">
          <mxGeometry x="120" width="60" height="25" as="geometry">
            <mxRectangle width="60" height="25" as="alternateBounds" />
          </mxGeometry>
        </mxCell>
        <mxCell id="CAmONdcAL_RtEgoEtn1a-112" value="0.6" style="shape=partialRectangle;html=1;whiteSpace=wrap;connectable=0;strokeColor=inherit;overflow=hidden;fillColor=none;top=0;left=0;bottom=0;right=0;pointerEvents=1;" vertex="1" parent="CAmONdcAL_RtEgoEtn1a-108">
          <mxGeometry x="180" width="100" height="25" as="geometry">
            <mxRectangle width="100" height="25" as="alternateBounds" />
          </mxGeometry>
        </mxCell>
        <mxCell id="CAmONdcAL_RtEgoEtn1a-113" value="" style="shape=tableRow;horizontal=0;startSize=0;swimlaneHead=0;swimlaneBody=0;strokeColor=inherit;top=0;left=0;bottom=0;right=0;collapsible=0;dropTarget=0;fillColor=none;points=[[0,0.5],[1,0.5]];portConstraint=eastwest;" vertex="1" parent="CAmONdcAL_RtEgoEtn1a-82">
          <mxGeometry y="153" width="280" height="26" as="geometry" />
        </mxCell>
        <mxCell id="CAmONdcAL_RtEgoEtn1a-114" value="false" style="shape=partialRectangle;html=1;whiteSpace=wrap;connectable=0;strokeColor=inherit;overflow=hidden;fillColor=none;top=0;left=0;bottom=0;right=0;pointerEvents=1;" vertex="1" parent="CAmONdcAL_RtEgoEtn1a-113">
          <mxGeometry width="60" height="26" as="geometry">
            <mxRectangle width="60" height="26" as="alternateBounds" />
          </mxGeometry>
        </mxCell>
        <mxCell id="CAmONdcAL_RtEgoEtn1a-115" value="true" style="shape=partialRectangle;html=1;whiteSpace=wrap;connectable=0;strokeColor=inherit;overflow=hidden;fillColor=none;top=0;left=0;bottom=0;right=0;pointerEvents=1;" vertex="1" parent="CAmONdcAL_RtEgoEtn1a-113">
          <mxGeometry x="60" width="60" height="26" as="geometry">
            <mxRectangle width="60" height="26" as="alternateBounds" />
          </mxGeometry>
        </mxCell>
        <mxCell id="CAmONdcAL_RtEgoEtn1a-116" value="false" style="shape=partialRectangle;html=1;whiteSpace=wrap;connectable=0;strokeColor=inherit;overflow=hidden;fillColor=none;top=0;left=0;bottom=0;right=0;pointerEvents=1;" vertex="1" parent="CAmONdcAL_RtEgoEtn1a-113">
          <mxGeometry x="120" width="60" height="26" as="geometry">
            <mxRectangle width="60" height="26" as="alternateBounds" />
          </mxGeometry>
        </mxCell>
        <mxCell id="CAmONdcAL_RtEgoEtn1a-117" value="0.3" style="shape=partialRectangle;html=1;whiteSpace=wrap;connectable=0;strokeColor=inherit;overflow=hidden;fillColor=none;top=0;left=0;bottom=0;right=0;pointerEvents=1;" vertex="1" parent="CAmONdcAL_RtEgoEtn1a-113">
          <mxGeometry x="180" width="100" height="26" as="geometry">
            <mxRectangle width="100" height="26" as="alternateBounds" />
          </mxGeometry>
        </mxCell>
        <mxCell id="CAmONdcAL_RtEgoEtn1a-118" value="" style="shape=tableRow;horizontal=0;startSize=0;swimlaneHead=0;swimlaneBody=0;strokeColor=inherit;top=0;left=0;bottom=0;right=0;collapsible=0;dropTarget=0;fillColor=none;points=[[0,0.5],[1,0.5]];portConstraint=eastwest;" vertex="1" parent="CAmONdcAL_RtEgoEtn1a-82">
          <mxGeometry y="179" width="280" height="25" as="geometry" />
        </mxCell>
        <mxCell id="CAmONdcAL_RtEgoEtn1a-119" value="false" style="shape=partialRectangle;html=1;whiteSpace=wrap;connectable=0;strokeColor=inherit;overflow=hidden;fillColor=none;top=0;left=0;bottom=0;right=0;pointerEvents=1;" vertex="1" parent="CAmONdcAL_RtEgoEtn1a-118">
          <mxGeometry width="60" height="25" as="geometry">
            <mxRectangle width="60" height="25" as="alternateBounds" />
          </mxGeometry>
        </mxCell>
        <mxCell id="CAmONdcAL_RtEgoEtn1a-120" value="false" style="shape=partialRectangle;html=1;whiteSpace=wrap;connectable=0;strokeColor=inherit;overflow=hidden;fillColor=none;top=0;left=0;bottom=0;right=0;pointerEvents=1;" vertex="1" parent="CAmONdcAL_RtEgoEtn1a-118">
          <mxGeometry x="60" width="60" height="25" as="geometry">
            <mxRectangle width="60" height="25" as="alternateBounds" />
          </mxGeometry>
        </mxCell>
        <mxCell id="CAmONdcAL_RtEgoEtn1a-121" value="true" style="shape=partialRectangle;html=1;whiteSpace=wrap;connectable=0;strokeColor=inherit;overflow=hidden;fillColor=none;top=0;left=0;bottom=0;right=0;pointerEvents=1;" vertex="1" parent="CAmONdcAL_RtEgoEtn1a-118">
          <mxGeometry x="120" width="60" height="25" as="geometry">
            <mxRectangle width="60" height="25" as="alternateBounds" />
          </mxGeometry>
        </mxCell>
        <mxCell id="CAmONdcAL_RtEgoEtn1a-122" value="" style="shape=partialRectangle;html=1;whiteSpace=wrap;connectable=0;strokeColor=inherit;overflow=hidden;fillColor=none;top=0;left=0;bottom=0;right=0;pointerEvents=1;" vertex="1" parent="CAmONdcAL_RtEgoEtn1a-118">
          <mxGeometry x="180" width="100" height="25" as="geometry">
            <mxRectangle width="100" height="25" as="alternateBounds" />
          </mxGeometry>
        </mxCell>
        <mxCell id="CAmONdcAL_RtEgoEtn1a-123" value="" style="shape=tableRow;horizontal=0;startSize=0;swimlaneHead=0;swimlaneBody=0;strokeColor=inherit;top=0;left=0;bottom=0;right=0;collapsible=0;dropTarget=0;fillColor=none;points=[[0,0.5],[1,0.5]];portConstraint=eastwest;" vertex="1" parent="CAmONdcAL_RtEgoEtn1a-82">
          <mxGeometry y="204" width="280" height="26" as="geometry" />
        </mxCell>
        <mxCell id="CAmONdcAL_RtEgoEtn1a-124" value="false" style="shape=partialRectangle;html=1;whiteSpace=wrap;connectable=0;strokeColor=inherit;overflow=hidden;fillColor=none;top=0;left=0;bottom=0;right=0;pointerEvents=1;" vertex="1" parent="CAmONdcAL_RtEgoEtn1a-123">
          <mxGeometry width="60" height="26" as="geometry">
            <mxRectangle width="60" height="26" as="alternateBounds" />
          </mxGeometry>
        </mxCell>
        <mxCell id="CAmONdcAL_RtEgoEtn1a-125" value="false" style="shape=partialRectangle;html=1;whiteSpace=wrap;connectable=0;strokeColor=inherit;overflow=hidden;fillColor=none;top=0;left=0;bottom=0;right=0;pointerEvents=1;" vertex="1" parent="CAmONdcAL_RtEgoEtn1a-123">
          <mxGeometry x="60" width="60" height="26" as="geometry">
            <mxRectangle width="60" height="26" as="alternateBounds" />
          </mxGeometry>
        </mxCell>
        <mxCell id="CAmONdcAL_RtEgoEtn1a-126" value="false" style="shape=partialRectangle;html=1;whiteSpace=wrap;connectable=0;strokeColor=inherit;overflow=hidden;fillColor=none;top=0;left=0;bottom=0;right=0;pointerEvents=1;" vertex="1" parent="CAmONdcAL_RtEgoEtn1a-123">
          <mxGeometry x="120" width="60" height="26" as="geometry">
            <mxRectangle width="60" height="26" as="alternateBounds" />
          </mxGeometry>
        </mxCell>
        <mxCell id="CAmONdcAL_RtEgoEtn1a-127" value="" style="shape=partialRectangle;html=1;whiteSpace=wrap;connectable=0;strokeColor=inherit;overflow=hidden;fillColor=none;top=0;left=0;bottom=0;right=0;pointerEvents=1;" vertex="1" parent="CAmONdcAL_RtEgoEtn1a-123">
          <mxGeometry x="180" width="100" height="26" as="geometry">
            <mxRectangle width="100" height="26" as="alternateBounds" />
          </mxGeometry>
        </mxCell>
      </root>
    </mxGraphModel>
  </diagram>
</mxfile>
